<mxfile host="app.diagrams.net" modified="2024-02-05T03:56:37.985Z" agent="Mozilla/5.0 (Windows NT 10.0; Win64; x64) AppleWebKit/537.36 (KHTML, like Gecko) Chrome/121.0.0.0 Safari/537.36" version="22.1.15" etag="QZ4N0UmjBsXI8AbFCDx-" type="github">
  <diagram name="Page-1" id="UyZJHKO3AeXXHf0l47MZ">
    <mxGraphModel>
      <root>
        <mxCell id="0" />
        <mxCell id="1" parent="0" />
      </root>
    </mxGraphModel>
  </diagram>
</mxfile>
